<svg version="1.0" preserveAspectRatio="xMidYMid meet" viewBox="122.00025000000001 108.249747402006 136.5 142.49999658000002" zoomAndPan="magnify" xmlns:xlink="http://www.w3.org/1999/xlink" xmlns="http://www.w3.org/2000/svg" style="max-height: 500px" width="136.5" height="142.49999658000002"><defs><g/><clipPath id="5f411d492e"><path clip-rule="nonzero" d="M 156.742188 139 L 192 139 L 192 175 L 156.742188 175 Z M 156.742188 139"/></clipPath><clipPath id="7ca860887b"><path clip-rule="nonzero" d="M 156.742188 126.074219 L 205 126.074219 L 205 139 L 156.742188 139 Z M 156.742188 126.074219"/></clipPath><clipPath id="57d7815f4d"><path clip-rule="nonzero" d="M 170 166 L 205 166 L 205 201.074219 L 170 201.074219 Z M 170 166"/></clipPath><clipPath id="6754ab1094"><path clip-rule="nonzero" d="M 170 152 L 218.242188 152 L 218.242188 165 L 170 165 Z M 170 152"/></clipPath></defs><g clip-path="url(#5f411d492e)"><path fill-rule="nonzero" fill-opacity="1" d="M 156.734375 139.761719 L 156.734375 174.265625 L 164.070312 166.929688 L 164.070312 147.097656 L 183.902344 147.097656 L 191.238281 139.761719 L 156.734375 139.761719" fill="#f14624"/></g><g clip-path="url(#7ca860887b)"><path fill-rule="nonzero" fill-opacity="1" d="M 156.78125 126.070312 L 156.78125 138.019531 L 164.117188 138.019531 L 164.117188 133.40625 L 197.59375 133.40625 L 204.929688 126.070312 L 156.78125 126.070312" fill="#f4f6fc"/></g><g clip-path="url(#57d7815f4d)"><path fill-rule="nonzero" fill-opacity="1" d="M 170.046875 166.585938 L 170.046875 201.085938 L 177.382812 193.753906 L 177.382812 173.921875 L 197.214844 173.921875 L 204.550781 166.585938 L 170.046875 166.585938" fill="#f4f6fc"/></g><g clip-path="url(#6754ab1094)"><path fill-rule="nonzero" fill-opacity="1" d="M 170.09375 152.894531 L 170.09375 164.84375 L 177.429688 164.84375 L 177.429688 160.230469 L 210.90625 160.230469 L 218.242188 152.894531 L 170.09375 152.894531" fill="#f14624"/></g><g fill-opacity="1" fill="#f4f6fc"><g transform="translate(122.00109, 221.922554)"><g><path d="M 0.625 0 L 0.625 -8.40625 L 6.859375 -8.40625 L 6.859375 -5.96875 L 3.390625 -5.96875 L 3.390625 -4.9375 L 6.515625 -4.9375 L 6.515625 -2.578125 L 3.390625 -2.578125 L 3.390625 0 Z M 0.625 0"/></g></g></g><g fill-opacity="1" fill="#f4f6fc"><g transform="translate(131.973099, 221.922554)"><g><path d="M 4.453125 0.1875 C 3.953125 0.1875 3.46875 0.125 3 0 C 2.53125 -0.113281 2.109375 -0.300781 1.734375 -0.5625 C 1.367188 -0.820312 1.078125 -1.175781 0.859375 -1.625 C 0.648438 -2.070312 0.546875 -2.617188 0.546875 -3.265625 L 0.546875 -8.40625 L 3.3125 -8.40625 L 3.3125 -3.390625 C 3.3125 -3.003906 3.410156 -2.722656 3.609375 -2.546875 C 3.804688 -2.378906 4.085938 -2.296875 4.453125 -2.296875 C 4.804688 -2.296875 5.082031 -2.378906 5.28125 -2.546875 C 5.476562 -2.722656 5.578125 -3.003906 5.578125 -3.390625 L 5.578125 -8.40625 L 8.359375 -8.40625 L 8.359375 -3.265625 C 8.359375 -2.617188 8.25 -2.070312 8.03125 -1.625 C 7.8125 -1.175781 7.515625 -0.820312 7.140625 -0.5625 C 6.773438 -0.300781 6.359375 -0.113281 5.890625 0 C 5.429688 0.125 4.953125 0.1875 4.453125 0.1875 Z M 4.453125 0.1875"/></g></g></g><g fill-opacity="1" fill="#f4f6fc"><g transform="translate(143.625112, 221.922554)"><g><path d="M 0.625 0 L 0.625 -8.40625 L 4.53125 -8.40625 C 4.976562 -8.40625 5.414062 -8.351562 5.84375 -8.25 C 6.269531 -8.15625 6.65625 -7.992188 7 -7.765625 C 7.34375 -7.546875 7.613281 -7.242188 7.8125 -6.859375 C 8.007812 -6.484375 8.109375 -6.007812 8.109375 -5.4375 C 8.109375 -4.78125 7.972656 -4.25 7.703125 -3.84375 C 7.441406 -3.4375 7.097656 -3.128906 6.671875 -2.921875 L 8.8125 0 L 5.765625 0 L 4.0625 -2.46875 L 3.390625 -2.46875 L 3.390625 0 Z M 3.390625 -4.5625 L 4.46875 -4.5625 C 4.738281 -4.5625 4.945312 -4.632812 5.09375 -4.78125 C 5.238281 -4.925781 5.3125 -5.117188 5.3125 -5.359375 C 5.3125 -5.585938 5.238281 -5.773438 5.09375 -5.921875 C 4.945312 -6.066406 4.738281 -6.140625 4.46875 -6.140625 L 3.390625 -6.140625 Z M 3.390625 -4.5625"/></g></g></g><g fill-opacity="1" fill="#f4f6fc"><g transform="translate(155.121131, 221.922554)"><g><path d="M 0.625 0 L 0.625 -8.40625 L 2.96875 -8.40625 L 5.8125 -4.46875 C 5.78125 -4.71875 5.757812 -4.960938 5.75 -5.203125 C 5.75 -5.441406 5.75 -5.671875 5.75 -5.890625 L 5.75 -8.40625 L 8.515625 -8.40625 L 8.515625 0 L 6.171875 0 L 3.34375 -3.9375 C 3.375 -3.675781 3.390625 -3.425781 3.390625 -3.1875 C 3.390625 -2.957031 3.390625 -2.734375 3.390625 -2.515625 L 3.390625 0 Z M 0.625 0"/></g></g></g><g fill-opacity="1" fill="#f4f6fc"><g transform="translate(167.025154, 221.922554)"><g><path d="M 0.625 0 L 0.625 -8.40625 L 3.390625 -8.40625 L 3.390625 0 Z M 0.625 0"/></g></g></g><g fill-opacity="1" fill="#f4f6fc"><g transform="translate(173.817159, 221.922554)"><g><path d="M 2.40625 0 L 2.40625 -5.96875 L 0.140625 -5.96875 L 0.140625 -8.40625 L 7.421875 -8.40625 L 7.421875 -5.96875 L 5.171875 -5.96875 L 5.171875 0 Z M 2.40625 0"/></g></g></g><g fill-opacity="1" fill="#f4f6fc"><g transform="translate(184.137172, 221.922554)"><g><path d="M 4.453125 0.1875 C 3.953125 0.1875 3.46875 0.125 3 0 C 2.53125 -0.113281 2.109375 -0.300781 1.734375 -0.5625 C 1.367188 -0.820312 1.078125 -1.175781 0.859375 -1.625 C 0.648438 -2.070312 0.546875 -2.617188 0.546875 -3.265625 L 0.546875 -8.40625 L 3.3125 -8.40625 L 3.3125 -3.390625 C 3.3125 -3.003906 3.410156 -2.722656 3.609375 -2.546875 C 3.804688 -2.378906 4.085938 -2.296875 4.453125 -2.296875 C 4.804688 -2.296875 5.082031 -2.378906 5.28125 -2.546875 C 5.476562 -2.722656 5.578125 -3.003906 5.578125 -3.390625 L 5.578125 -8.40625 L 8.359375 -8.40625 L 8.359375 -3.265625 C 8.359375 -2.617188 8.25 -2.070312 8.03125 -1.625 C 7.8125 -1.175781 7.515625 -0.820312 7.140625 -0.5625 C 6.773438 -0.300781 6.359375 -0.113281 5.890625 0 C 5.429688 0.125 4.953125 0.1875 4.453125 0.1875 Z M 4.453125 0.1875"/></g></g></g><g fill-opacity="1" fill="#f4f6fc"><g transform="translate(195.789185, 221.922554)"><g><path d="M 0.625 0 L 0.625 -8.40625 L 4.53125 -8.40625 C 4.976562 -8.40625 5.414062 -8.351562 5.84375 -8.25 C 6.269531 -8.15625 6.65625 -7.992188 7 -7.765625 C 7.34375 -7.546875 7.613281 -7.242188 7.8125 -6.859375 C 8.007812 -6.484375 8.109375 -6.007812 8.109375 -5.4375 C 8.109375 -4.78125 7.972656 -4.25 7.703125 -3.84375 C 7.441406 -3.4375 7.097656 -3.128906 6.671875 -2.921875 L 8.8125 0 L 5.765625 0 L 4.0625 -2.46875 L 3.390625 -2.46875 L 3.390625 0 Z M 3.390625 -4.5625 L 4.46875 -4.5625 C 4.738281 -4.5625 4.945312 -4.632812 5.09375 -4.78125 C 5.238281 -4.925781 5.3125 -5.117188 5.3125 -5.359375 C 5.3125 -5.585938 5.238281 -5.773438 5.09375 -5.921875 C 4.945312 -6.066406 4.738281 -6.140625 4.46875 -6.140625 L 3.390625 -6.140625 Z M 3.390625 -4.5625"/></g></g></g><g fill-opacity="1" fill="#f4f6fc"><g transform="translate(207.285203, 221.922554)"><g><path d="M 0.625 0 L 0.625 -8.40625 L 7 -8.40625 L 7 -6.203125 L 3.390625 -6.203125 L 3.390625 -5.25 L 6.5625 -5.25 L 6.5625 -3.203125 L 3.390625 -3.203125 L 3.390625 -2.203125 L 7.0625 -2.203125 L 7.0625 0 Z M 0.625 0"/></g></g></g><g fill-opacity="1" fill="#f4f6fc"><g transform="translate(217.509223, 221.922554)"><g/></g></g><g fill-opacity="1" fill="#f4f6fc"><g transform="translate(222.465229, 221.922554)"><g><path d="M 0.625 0 L 0.625 -8.40625 L 6.859375 -8.40625 L 6.859375 -5.96875 L 3.390625 -5.96875 L 3.390625 -4.9375 L 6.515625 -4.9375 L 6.515625 -2.578125 L 3.390625 -2.578125 L 3.390625 0 Z M 0.625 0"/></g></g></g><g fill-opacity="1" fill="#f4f6fc"><g transform="translate(232.437233, 221.922554)"><g><path d="M 0.625 0 L 0.625 -8.40625 L 3.390625 -8.40625 L 3.390625 0 Z M 0.625 0"/></g></g></g><g fill-opacity="1" fill="#f4f6fc"><g transform="translate(239.229232, 221.922554)"><g><path d="M -0.234375 0 L 2.65625 -4.328125 L -0.078125 -8.40625 L 3.15625 -8.40625 L 4.390625 -6.234375 L 5.625 -8.40625 L 8.875 -8.40625 L 6.125 -4.328125 L 9.015625 0 L 5.78125 0 L 4.390625 -2.359375 L 3.015625 0 Z M -0.234375 0"/></g></g></g><g fill-opacity="1" fill="#f4f6fc"><g transform="translate(250.790148, 221.922554)"><g/></g></g></svg>